<svg width="280" height="250" viewBox="0 0 280 250" fill="none" xmlns="http://www.w3.org/2000/svg">
<g clip-path="url(#clip0)">
<path d="M34.0977 194.742L30.9751 182.426C25.4383 180.079 19.7736 178.047 14.0079 176.339L13.6136 182.062L12.0148 175.756C4.86442 173.715 0 172.815 0 172.815C0 172.815 6.57072 197.802 20.3523 216.904L36.4109 219.725L23.9354 221.524C25.6697 223.61 27.5336 225.585 29.5159 227.437C49.5642 246.047 71.8943 254.585 79.3915 246.508C86.8887 238.43 76.714 216.797 56.6657 198.188C50.4505 192.419 42.6429 187.789 34.8275 184.146L34.0977 194.742Z" fill="#E6E6E6"/>
<path d="M63.7959 181.367L67.489 169.21C63.9622 164.339 60.1634 159.671 56.1108 155.228L52.8147 159.924L54.7056 153.7C49.6399 148.256 45.9407 144.972 45.9407 144.972C45.9407 144.972 38.65 169.757 40.5736 193.234L52.8624 203.949L41.253 199.04C41.6593 201.723 42.2338 204.377 42.9733 206.987C50.5165 233.281 65.2187 252.132 75.8117 249.093C86.4047 246.054 88.877 222.276 81.3339 195.982C78.9954 187.831 74.7048 179.832 69.8979 172.673L63.7959 181.367Z" fill="#E6E6E6"/>
<path d="M239.606 231.093L241.93 228.584C241.649 226.99 241.278 225.413 240.819 223.86L239.469 224.61L240.658 223.325C240.072 221.411 239.562 220.181 239.562 220.181C239.562 220.181 234.883 225.326 232.588 231.236L234.304 235.276L232.07 232.722C231.853 233.419 231.68 234.13 231.552 234.849C230.287 242.102 231.631 248.395 234.553 248.905C237.476 249.414 240.87 243.947 242.135 236.694C242.482 234.377 242.473 232.02 242.106 229.705L239.606 231.093Z" fill="#E6E6E6"/>
<path d="M273.982 236.056L277.268 235.109C277.851 233.599 278.349 232.057 278.758 230.491L277.215 230.435L278.897 229.95C279.385 228.008 279.584 226.692 279.584 226.692C279.584 226.692 272.919 228.677 267.9 232.551L267.281 236.896L266.688 233.555C266.142 234.04 265.627 234.558 265.146 235.108C260.314 240.663 258.211 246.745 260.449 248.692C262.687 250.638 268.419 247.713 273.251 242.157C274.746 240.353 275.956 238.331 276.839 236.16L273.982 236.056Z" fill="#E6E6E6"/>
<path d="M182.115 16.9617V231.976C182.114 236.474 180.327 240.788 177.146 243.969C173.965 247.149 169.652 248.937 165.153 248.938H81.5964C77.097 248.938 72.7817 247.152 69.5995 243.971C66.4173 240.79 64.6289 236.475 64.6276 231.976V16.9617C64.6289 12.4624 66.4173 8.14778 69.5995 4.96691C72.7817 1.78605 77.097 -0.000582559 81.5964 -1.51237e-05H91.7324C91.2347 1.22394 91.0453 2.55141 91.1808 3.86572C91.3163 5.18003 91.7726 6.44093 92.5095 7.5376C93.2465 8.63427 94.2415 9.53313 95.4072 10.1552C96.5729 10.7772 97.8735 11.1034 99.1948 11.1051H146.833C148.155 11.1034 149.455 10.7773 150.621 10.1552C151.787 9.53316 152.782 8.6343 153.519 7.53763C154.256 6.44095 154.712 5.18004 154.847 3.86573C154.983 2.55142 154.794 1.22394 154.296 -9.76422e-06H165.153C169.652 0.000900014 173.965 1.78823 177.146 4.96898C180.327 8.14972 182.114 12.4635 182.115 16.9617Z" fill="#3F3D56"/>
<path d="M111.598 89.0527C111.597 87.5797 111.985 86.1326 112.722 84.857C113.458 83.5815 114.518 82.5224 115.794 81.7864C114.518 81.0494 113.071 80.6612 111.597 80.6609C110.124 80.6606 108.677 81.0481 107.401 81.7846C106.125 82.521 105.065 83.5804 104.328 84.8563C103.592 86.1321 103.204 87.5794 103.204 89.0527C103.204 90.526 103.592 91.9733 104.328 93.2491C105.065 94.525 106.125 95.5844 107.401 96.3208C108.677 97.0573 110.124 97.4448 111.597 97.4445C113.071 97.4442 114.518 97.056 115.794 96.319C114.518 95.583 113.458 94.5239 112.722 93.2484C111.985 91.9728 111.597 90.5257 111.598 89.0527Z" fill="white"/>
<path d="M122.147 89.0527C122.147 87.5797 122.535 86.1326 123.271 84.857C124.008 83.5815 125.067 82.5224 126.343 81.7864C125.068 81.0494 123.62 80.6612 122.147 80.6609C120.674 80.6606 119.227 81.0481 117.951 81.7846C116.675 82.521 115.615 83.5804 114.878 84.8563C114.141 86.1321 113.754 87.5794 113.754 89.0527C113.754 90.526 114.141 91.9733 114.878 93.2491C115.615 94.525 116.675 95.5844 117.951 96.3208C119.227 97.0573 120.674 97.4448 122.147 97.4445C123.62 97.4442 125.068 97.056 126.343 96.319C125.067 95.583 124.008 94.5239 123.271 93.2484C122.535 91.9728 122.147 90.5257 122.147 89.0527Z" fill="white"/>
<path d="M132.457 97.4445C137.092 97.4445 140.849 93.6874 140.849 89.0527C140.849 84.418 137.092 80.6609 132.457 80.6609C127.823 80.6609 124.066 84.418 124.066 89.0527C124.066 93.6874 127.823 97.4445 132.457 97.4445Z" fill="#02A9DB"/>
<path d="M160.915 143.973H85.9034V144.676H160.915V143.973Z" fill="white"/>
<path d="M88.2723 139.587C89.5806 139.587 90.6411 138.526 90.6411 137.218C90.6411 135.91 89.5806 134.849 88.2723 134.849C86.9641 134.849 85.9036 135.91 85.9036 137.218C85.9036 138.526 86.9641 139.587 88.2723 139.587Z" fill="#02A9DB"/>
<path d="M160.915 167.661H85.9034V168.364H160.915V167.661Z" fill="white"/>
<path d="M88.2723 163.275C89.5806 163.275 90.6411 162.214 90.6411 160.906C90.6411 159.598 89.5806 158.537 88.2723 158.537C86.9641 158.537 85.9036 159.598 85.9036 160.906C85.9036 162.214 86.9641 163.275 88.2723 163.275Z" fill="#02A9DB"/>
<path d="M146.482 115.263H97.5731C97.1075 115.263 96.6611 115.078 96.3319 114.748C96.0026 114.419 95.8174 113.973 95.8169 113.507V64.5984C95.8174 64.1328 96.0026 63.6865 96.3319 63.3572C96.6611 63.028 97.1075 62.8428 97.5731 62.8423H146.482C146.947 62.8428 147.394 63.028 147.723 63.3572C148.052 63.6865 148.237 64.1328 148.238 64.5984V113.507C148.237 113.973 148.052 114.419 147.723 114.748C147.394 115.078 146.947 115.263 146.482 115.263ZM97.5731 63.5447C97.2937 63.545 97.0259 63.6561 96.8283 63.8537C96.6308 64.0512 96.5197 64.3191 96.5194 64.5984V113.507C96.5197 113.786 96.6308 114.054 96.8283 114.252C97.0259 114.449 97.2937 114.561 97.5731 114.561H146.482C146.761 114.561 147.029 114.449 147.226 114.252C147.424 114.054 147.535 113.786 147.535 113.507V64.5984C147.535 64.3191 147.424 64.0512 147.226 63.8537C147.029 63.6561 146.761 63.545 146.482 63.5447H97.5731Z" fill="white"/>
<path d="M159.51 183.409H135.869C135.093 183.409 134.464 184.038 134.464 184.814V193.059C134.464 193.835 135.093 194.464 135.869 194.464H159.51C160.286 194.464 160.915 193.835 160.915 193.059V184.814C160.915 184.038 160.286 183.409 159.51 183.409Z" fill="#02A9DB"/>
<path d="M279.584 248.594H0.279175V249.296H279.584V248.594Z" fill="#3F3D56"/>
<path d="M226.379 114.181C226.379 114.181 225.407 120.339 226.379 121.311C227.352 122.283 220.221 130.386 220.221 130.386L214.387 122.283C214.387 122.283 216.98 118.07 216.008 114.505L226.379 114.181Z" fill="#FFB8B8"/>
<path d="M204.989 160.529L200.774 205.581L202.393 240.585L210.172 238.317L210.497 206.878L219.574 179.652L225.083 209.147L224.433 238.965L234.157 239.29L234.806 206.23L235.945 160.057L204.989 160.529Z" fill="#2F2E41"/>
<path d="M224.759 237.993V245.124C224.759 245.124 223.138 250.31 228.324 249.985C233.51 249.661 233.186 247.392 233.186 247.392L231.241 238.641L224.759 237.993Z" fill="#2F2E41"/>
<path d="M209.849 237.993V245.124C209.849 245.124 211.47 250.31 206.284 249.985C201.098 249.661 201.422 247.392 201.422 247.392L203.367 238.641L209.849 237.993Z" fill="#2F2E41"/>
<path d="M220.869 117.746C224.986 117.746 228.324 114.408 228.324 110.291C228.324 106.174 224.986 102.836 220.869 102.836C216.752 102.836 213.415 106.174 213.415 110.291C213.415 114.408 216.752 117.746 220.869 117.746Z" fill="#FFB8B8"/>
<path d="M220.545 126.821L221.193 123.58H222.814L225.948 119.072L228.648 121.635L229.296 136.869H211.794L213.415 120.663L215.775 119.072C215.775 119.072 215.359 124.552 219.897 124.552L220.545 126.821Z" fill="#575A89"/>
<path d="M213.739 123.256C213.739 123.256 216.423 126.654 220.429 126.413C224.435 126.173 228.324 122.932 228.324 122.932L233.834 165.067C233.834 165.067 227.676 165.715 225.731 162.474L210.822 162.15L211.146 122.932L213.739 123.256Z" fill="#D0CDE1"/>
<path d="M215.927 118.513L201.746 125.525L205.312 145.62C205.312 145.62 206.608 153.075 205.312 155.992C204.015 158.909 202.719 178.356 202.719 178.356C202.719 178.356 217.304 179.976 215.359 156.964C213.415 133.952 215.927 118.513 215.927 118.513Z" fill="#2F2E41"/>
<path d="M207.256 167.012L209.201 168.956C209.201 168.956 215.035 179.004 217.628 175.439C220.221 171.873 213.09 165.715 213.09 165.715L209.849 163.122L207.256 167.012Z" fill="#FFB8B8"/>
<path d="M225.955 118.513L239.992 125.525L235.13 149.509C235.13 149.509 235.455 157.288 237.075 161.502C238.696 165.715 238.048 178.032 238.048 178.032C238.048 178.032 236.103 185.486 231.889 167.012C227.676 148.537 225.955 118.513 225.955 118.513Z" fill="#2F2E41"/>
<path d="M236.751 155.343H233.834C233.834 155.343 224.11 154.047 224.759 157.936C225.407 161.826 234.482 160.853 234.482 160.853L238.048 160.529L236.751 155.343Z" fill="#FFB8B8"/>
<path d="M203.691 124.552L201.422 125.525C201.422 125.525 199.153 130.386 198.829 132.007C198.505 133.628 194.616 153.075 195.588 155.343C196.56 157.612 206.284 169.604 206.284 169.604L211.794 163.77L203.691 152.75L205.96 138.813L203.691 124.552Z" fill="#2F2E41"/>
<path d="M235.13 124.876L239.419 125.238L240.316 125.525C240.316 125.525 249.391 150.157 247.447 154.047C245.502 157.936 237.075 165.067 237.075 165.067L234.806 155.019L239.02 151.13L234.806 138.165L235.13 124.876Z" fill="#2F2E41"/>
<path d="M227.176 104.543C227.176 104.543 229.127 100.883 224.836 100.551C224.836 100.551 220.935 98.2218 217.815 100.883C217.815 100.883 215.085 100.218 214.305 102.214C214.305 102.214 213.915 101.216 215.085 100.551C215.085 100.551 212.354 99.8853 212.354 103.212C212.354 103.212 211.184 106.539 212.354 109.533C213.525 112.527 213.915 112.86 213.915 112.86C213.915 112.86 211.992 106.583 216.672 106.25C221.353 105.917 226.591 103.046 226.981 106.705C227.371 110.365 228.151 111.363 228.151 111.363C228.151 111.363 231.662 106.04 227.176 104.543Z" fill="#2F2E41"/>
</g>
<defs>
<clipPath id="clip0">
<rect width="279.584" height="250" fill="white"/>
</clipPath>
</defs>
</svg>
