<svg width="326" height="250" viewBox="0 0 326 250" fill="none" xmlns="http://www.w3.org/2000/svg">
<path d="M75.0644 173.015L100.304 133.4L43.7786 97.5259L14.5872 143.342L61.3412 173.015H75.0644Z" fill="#F0F0F0"/>
<path d="M110.832 185.373H48.3113V172.812H110.832V185.373ZM49.1233 184.562H110.02V173.622H49.1233V184.562Z" fill="#3F3D56"/>
<path d="M103.118 183.144C105.36 183.144 107.178 181.33 107.178 179.092C107.178 176.855 105.36 175.04 103.118 175.04C100.876 175.04 99.0585 176.855 99.0585 179.092C99.0585 181.33 100.876 183.144 103.118 183.144Z" fill="#02A9DB"/>
<path d="M91.7509 183.144C93.9931 183.144 95.8107 181.33 95.8107 179.092C95.8107 176.855 93.9931 175.04 91.7509 175.04C89.5088 175.04 87.6912 176.855 87.6912 179.092C87.6912 181.33 89.5088 183.144 91.7509 183.144Z" fill="#02A9DB"/>
<path d="M80.3836 183.144C82.6257 183.144 84.4433 181.33 84.4433 179.092C84.4433 176.855 82.6257 175.04 80.3836 175.04C78.1414 175.04 76.3238 176.855 76.3238 179.092C76.3238 181.33 78.1414 183.144 80.3836 183.144Z" fill="#02A9DB"/>
<path d="M69.0162 183.144C71.2583 183.144 73.076 181.33 73.076 179.092C73.076 176.855 71.2583 175.04 69.0162 175.04C66.774 175.04 64.9564 176.855 64.9564 179.092C64.9564 181.33 66.774 183.144 69.0162 183.144Z" fill="#02A9DB"/>
<path d="M57.6488 183.144C59.891 183.144 61.7086 181.33 61.7086 179.092C61.7086 176.855 59.891 175.04 57.6488 175.04C55.4067 175.04 53.589 176.855 53.589 179.092C53.589 181.33 55.4067 183.144 57.6488 183.144Z" fill="#02A9DB"/>
<path d="M185.126 45.7861V14.9919H200.553V0H125.041V75.3647H189.592V67.9961C189.592 66.6225 189.863 65.2624 190.389 63.9934C190.916 62.7243 191.688 61.5713 192.661 60.6C193.634 59.6288 194.79 58.8583 196.061 58.3327C197.333 57.807 198.695 57.5365 200.072 57.5365H200.553V45.7861H185.126Z" fill="#F0F0F0"/>
<path d="M268.757 194.489H218.416V205.024H268.757V194.489Z" fill="#02A9DB"/>
<path d="M279.719 142.626H205.831V152.35H279.719V142.626Z" fill="#F0F0F0"/>
<path d="M315.851 249.19H0V250H315.851V249.19Z" fill="#3F3D56"/>
<path d="M292.379 250H200.072C197.185 249.997 194.418 248.851 192.378 246.814C190.337 244.777 189.189 242.016 189.186 239.135V67.9961C189.189 65.1156 190.337 62.354 192.378 60.3171C194.418 58.2803 197.185 57.1346 200.072 57.1313H292.379C295.265 57.1346 298.032 58.2803 300.073 60.3171C302.114 62.354 303.262 65.1156 303.265 67.9961V239.135C303.262 242.016 302.114 244.777 300.073 246.814C298.032 248.851 295.265 249.997 292.379 250ZM200.072 57.9417C197.401 57.9447 194.84 59.005 192.951 60.8899C191.063 62.7748 190.001 65.3305 189.998 67.9961V239.135C190.001 241.801 191.063 244.356 192.951 246.241C194.84 248.126 197.401 249.187 200.072 249.19H292.379C295.05 249.187 297.611 248.126 299.499 246.241C301.388 244.356 302.45 241.801 302.453 239.135V67.9961C302.45 65.3305 301.388 62.7748 299.499 60.8899C297.611 59.005 295.05 57.9447 292.379 57.9417H200.072Z" fill="#3F3D56"/>
<path d="M235.264 65.235C234.782 65.235 234.311 65.0924 233.911 64.8253C233.51 64.5582 233.198 64.1785 233.014 63.7342C232.829 63.29 232.781 62.8012 232.875 62.3296C232.969 61.858 233.201 61.4248 233.542 61.0848C233.882 60.7448 234.316 60.5133 234.789 60.4195C235.261 60.3257 235.751 60.3738 236.196 60.5578C236.641 60.7418 237.022 61.0534 237.289 61.4532C237.557 61.853 237.7 62.3231 237.7 62.8039C237.699 63.4484 237.442 64.0664 236.986 64.5222C236.529 64.9779 235.91 65.2343 235.264 65.235ZM235.264 61.1831C234.943 61.1831 234.629 61.2782 234.362 61.4563C234.095 61.6344 233.887 61.8875 233.764 62.1837C233.641 62.4798 233.609 62.8057 233.671 63.1201C233.734 63.4345 233.889 63.7233 234.116 63.9499C234.343 64.1766 234.632 64.331 234.947 64.3935C235.262 64.456 235.589 64.4239 235.885 64.3013C236.182 64.1786 236.436 63.9709 236.614 63.7043C236.793 63.4378 236.888 63.1244 236.888 62.8039C236.887 62.3742 236.716 61.9622 236.412 61.6584C236.107 61.3545 235.695 61.1836 235.264 61.1831Z" fill="#3F3D56"/>
<path d="M259.217 62.3987H241.354V63.2091H259.217V62.3987Z" fill="#3F3D56"/>
<path d="M295.958 68.8817V101.297C287.344 101.296 279.083 97.8809 272.993 91.8021C266.902 85.7232 263.48 77.4785 263.479 68.8817H295.958Z" fill="#02A9DB"/>
<path d="M296.364 239.06H196.087V68.4765H296.364V239.06ZM196.899 238.25H295.552V69.2869H196.899V238.25Z" fill="#3F3D56"/>
<path opacity="0.1" d="M272.411 99.2706C278.465 99.2706 283.372 94.3726 283.372 88.3306C283.372 82.2886 278.465 77.3906 272.411 77.3906C266.357 77.3906 261.45 82.2886 261.45 88.3306C261.45 94.3726 266.357 99.2706 272.411 99.2706Z" fill="black"/>
<path d="M270.787 100.486C276.841 100.486 281.748 95.5882 281.748 89.5462C281.748 83.5042 276.841 78.6062 270.787 78.6062C264.733 78.6062 259.826 83.5042 259.826 89.5462C259.826 95.5882 264.733 100.486 270.787 100.486Z" fill="#02A9DB"/>
<path d="M215.98 75.3647H200.553V81.0373H215.98V75.3647Z" fill="#3F3D56"/>
<path d="M224.506 129.254H209.078V134.927H224.506V129.254Z" fill="#3F3D56"/>
<path d="M283.778 150.324H209.078V139.789H283.778V150.324ZM209.89 149.514H282.966V140.6H209.89V149.514Z" fill="#3F3D56"/>
<path d="M279.719 173.42H205.831V183.144H279.719V173.42Z" fill="#F0F0F0"/>
<path d="M224.506 160.049H209.078V165.721H224.506V160.049Z" fill="#3F3D56"/>
<path d="M283.778 181.118H209.078V170.583H283.778V181.118ZM209.89 180.308H282.966V171.394H209.89V180.308Z" fill="#3F3D56"/>
<path d="M272.005 202.593H220.852V191.248H272.005V202.593ZM221.664 201.783H271.193V192.058H221.664V201.783Z" fill="#3F3D56"/>
<path d="M281.748 146.272C281.748 147.106 281.49 147.92 281.01 148.603C280.529 149.285 279.849 149.803 279.062 150.085C278.276 150.367 277.421 150.401 276.615 150.18C275.809 149.96 275.091 149.496 274.559 148.853L274.555 148.849C274.166 148.379 273.889 147.828 273.744 147.237C273.599 146.646 273.589 146.029 273.715 145.433C273.842 144.838 274.101 144.278 274.474 143.796C274.846 143.314 275.323 142.922 275.869 142.649C276.414 142.377 277.014 142.23 277.624 142.221C278.235 142.212 278.839 142.34 279.392 142.595C279.946 142.851 280.435 143.228 280.822 143.699C281.21 144.169 281.486 144.72 281.631 145.312C281.631 145.313 281.631 145.313 281.631 145.314C281.631 145.314 281.632 145.315 281.632 145.315C281.632 145.315 281.633 145.316 281.633 145.316C281.634 145.316 281.634 145.316 281.635 145.316C281.71 145.629 281.748 145.95 281.748 146.272Z" fill="#02A9DB"/>
<path opacity="0.1" d="M281.748 146.272C281.748 147.106 281.49 147.92 281.01 148.603C280.529 149.285 279.849 149.803 279.062 150.085C278.276 150.367 277.421 150.401 276.615 150.18C275.809 149.96 275.091 149.496 274.559 148.853L274.555 148.849C274.48 148.536 274.441 148.215 274.441 147.893C274.441 147.059 274.699 146.245 275.18 145.563C275.66 144.88 276.34 144.363 277.127 144.08C277.913 143.798 278.768 143.765 279.574 143.985C280.38 144.206 281.098 144.669 281.631 145.312C281.631 145.313 281.631 145.313 281.631 145.314C281.631 145.314 281.632 145.315 281.632 145.315C281.632 145.315 281.633 145.316 281.633 145.316C281.634 145.316 281.634 145.316 281.635 145.316C281.71 145.629 281.748 145.95 281.748 146.272Z" fill="black"/>
<path d="M279.313 152.755C281.555 152.755 283.372 150.941 283.372 148.703C283.372 146.466 281.555 144.652 279.313 144.652C277.07 144.652 275.253 146.466 275.253 148.703C275.253 150.941 277.07 152.755 279.313 152.755Z" fill="#02A9DB"/>
<path d="M281.748 177.066C281.748 177.901 281.49 178.714 281.01 179.397C280.529 180.079 279.849 180.597 279.062 180.879C278.276 181.161 277.421 181.195 276.615 180.974C275.809 180.754 275.091 180.29 274.559 179.647L274.555 179.643C274.166 179.174 273.889 178.622 273.744 178.031C273.599 177.44 273.589 176.823 273.715 176.228C273.842 175.632 274.101 175.072 274.474 174.59C274.846 174.108 275.323 173.716 275.869 173.444C276.414 173.171 277.014 173.024 277.624 173.015C278.235 173.006 278.839 173.134 279.392 173.39C279.946 173.645 280.435 174.022 280.822 174.493C281.21 174.963 281.486 175.515 281.631 176.106C281.631 176.107 281.631 176.107 281.631 176.108C281.631 176.108 281.632 176.109 281.632 176.109C281.632 176.109 281.633 176.11 281.633 176.11C281.634 176.11 281.634 176.11 281.635 176.11C281.71 176.423 281.748 176.744 281.748 177.066Z" fill="#02A9DB"/>
<path opacity="0.1" d="M281.748 177.066C281.748 177.901 281.49 178.714 281.01 179.397C280.529 180.079 279.849 180.597 279.062 180.879C278.276 181.161 277.421 181.195 276.615 180.974C275.809 180.754 275.091 180.29 274.559 179.647L274.555 179.643C274.48 179.33 274.441 179.009 274.441 178.687C274.441 177.853 274.699 177.039 275.18 176.357C275.66 175.674 276.34 175.157 277.127 174.874C277.913 174.592 278.768 174.559 279.574 174.779C280.38 175 281.098 175.463 281.631 176.106C281.631 176.107 281.631 176.107 281.631 176.108C281.631 176.108 281.632 176.109 281.632 176.109C281.632 176.109 281.633 176.11 281.633 176.11C281.634 176.11 281.634 176.11 281.635 176.11C281.71 176.423 281.748 176.744 281.748 177.066Z" fill="black"/>
<path d="M279.313 183.549C281.555 183.549 283.372 181.735 283.372 179.498C283.372 177.26 281.555 175.446 279.313 175.446C277.07 175.446 275.253 177.26 275.253 179.498C275.253 181.735 277.07 183.549 279.313 183.549Z" fill="#02A9DB"/>
<path d="M211.108 19.4489H189.998V40.5186H211.108V19.4489Z" fill="#F0F0F0"/>
<path d="M272.411 34.846C271.447 34.846 270.505 34.5609 269.704 34.0266C268.903 33.4923 268.279 32.7329 267.91 31.8445C267.541 30.956 267.445 29.9784 267.633 29.0352C267.821 28.092 268.285 27.2257 268.966 26.5457C269.647 25.8657 270.516 25.4026 271.461 25.215C272.406 25.0274 273.385 25.1237 274.275 25.4917C275.165 25.8597 275.926 26.4829 276.462 27.2825C276.997 28.0821 277.283 29.0221 277.283 29.9838C277.281 31.2729 276.768 32.5088 275.854 33.4203C274.941 34.3319 273.703 34.8446 272.411 34.846ZM272.411 25.9319C271.608 25.9319 270.823 26.1696 270.155 26.6148C269.488 27.06 268.967 27.6928 268.66 28.4332C268.353 29.1736 268.273 29.9883 268.429 30.7743C268.586 31.5603 268.972 32.2822 269.54 32.8489C270.108 33.4156 270.831 33.8015 271.619 33.9578C272.406 34.1141 273.223 34.0339 273.965 33.7272C274.706 33.4206 275.34 32.9012 275.787 32.2349C276.233 31.5686 276.471 30.7852 276.471 29.9838C276.469 28.9095 276.041 27.8797 275.28 27.12C274.519 26.3604 273.487 25.9332 272.411 25.9319Z" fill="#3F3D56"/>
<path d="M165.233 102.512H154.677V91.9773H165.233V102.512ZM155.489 101.702H164.421V92.7877H155.489V101.702Z" fill="#3F3D56"/>
<path d="M326 181.118H315.445V170.583H326V181.118ZM316.257 180.308H325.188V171.394H316.257V180.308Z" fill="#3F3D56"/>
<path d="M117.735 110.481L119.546 111.454L125.71 114.77L135.66 120.121L141.459 109.383C142.005 108.374 142.347 107.267 142.464 106.126C142.581 104.986 142.471 103.833 142.142 102.734C141.812 101.636 141.268 100.613 140.542 99.7244C139.816 98.8357 138.921 98.0988 137.909 97.5557C135.747 96.3901 133.269 95.9398 130.834 96.2696C128.398 96.5994 126.13 97.6923 124.357 99.3908L124.354 99.3939C123.482 100.23 122.745 101.197 122.172 102.26L117.735 110.481Z" fill="#2F2E41"/>
<path d="M144.893 219.991L143.678 233.337L139.119 233.944L136.08 218.777L144.893 219.991Z" fill="#FFB8B8"/>
<path d="M137.903 233.944C137.903 233.944 143.678 230.911 144.893 233.337C144.893 233.337 143.982 240.617 147.629 241.527C151.276 242.437 152.796 248.807 147.629 249.414C142.462 250.021 139.119 248.201 137.295 248.201C135.472 248.201 137.295 241.831 137.295 241.831L137.903 233.944Z" fill="#2F2E41"/>
<path d="M108.118 219.991L109.334 233.337L113.893 233.944L116.932 218.777L108.118 219.991Z" fill="#FFB8B8"/>
<path d="M115.109 233.944C115.109 233.944 109.334 230.911 108.118 233.337C108.118 233.337 109.03 240.617 105.383 241.527C101.736 242.437 100.216 248.807 105.383 249.414C110.55 250.021 113.893 248.201 115.716 248.201C117.54 248.201 115.716 241.831 115.716 241.831L115.109 233.944Z" fill="#2F2E41"/>
<path d="M133.04 112.913C137.405 112.913 140.942 109.382 140.942 105.027C140.942 100.671 137.405 97.1401 133.04 97.1401C128.676 97.1401 125.138 100.671 125.138 105.027C125.138 109.382 128.676 112.913 133.04 112.913Z" fill="#FFB8B8"/>
<path d="M107.814 120.497L114.197 130.507L121.795 129.9L134.256 130.81C134.256 130.81 135.432 128.462 136.393 126.178C136.918 125.038 137.323 123.845 137.599 122.62C137.903 120.497 133.648 118.374 133.648 118.374C133.648 118.374 133.481 118.343 133.201 118.276C132.831 118.188 132.259 118.043 131.633 117.831C130.22 117.351 128.521 116.538 128.177 115.34C127.57 113.217 132.128 110.183 132.128 110.183L126.658 105.027C126.658 105.027 121.798 111.764 115.896 113.299C115.554 113.389 115.207 113.46 114.856 113.511C114.838 113.514 114.823 113.517 114.805 113.52C108.422 114.43 107.814 120.497 107.814 120.497Z" fill="#FFB8B8"/>
<path d="M111.158 117.767L107.814 120.497C107.814 120.497 105.079 133.54 105.991 137.18C106.903 140.82 105.687 144.157 105.687 144.764C105.687 145.37 102.952 168.12 102.952 168.12C102.952 168.12 97.4809 180.254 103.255 179.04C109.03 177.827 106.903 165.694 106.903 165.694L113.893 144.46V126.564L111.158 117.767Z" fill="#FFB8B8"/>
<path d="M135.168 120.194L137.599 122.014L138.815 147.494L147.933 169.334C147.933 169.334 154.619 179.95 150.364 180.254C146.109 180.557 143.374 169.334 143.374 169.334L135.168 148.404L133.952 128.08L135.168 120.194Z" fill="#FFB8B8"/>
<path d="M119.971 122.014C119.971 122.014 126.05 126.26 135.776 124.744C135.776 124.744 138.511 130.204 136.991 133.237C135.472 136.27 138.815 143.55 139.423 144.46C140.031 145.37 147.021 164.177 149.452 184.5C151.884 204.824 158.57 218.777 152.796 220.597C147.021 222.417 135.168 224.541 133.952 222.721C132.736 220.9 130.913 175.704 130.913 175.704L127.57 192.994C127.57 192.994 132.128 222.417 128.785 223.024C125.442 223.631 104.471 221.811 105.079 218.17C105.687 214.53 111.765 195.42 111.765 195.42C111.765 195.42 111.461 157.2 117.54 149.92C117.54 149.92 119.971 145.977 116.628 140.82C113.285 135.664 113.589 127.474 113.589 127.474C113.589 127.474 116.02 127.474 119.971 122.014Z" fill="#2F2E41"/>
<path d="M114.856 113.511L119.972 124.744L121.187 124.137L115.896 113.299L114.856 113.511Z" fill="#2F2E41"/>
<path d="M131.633 117.831L135.472 126.26L136.393 126.178L136.08 124.744L133.201 118.276C132.831 118.188 132.259 118.043 131.633 117.831Z" fill="#2F2E41"/>
<path d="M119.546 111.454C119.838 112.393 120.401 113.224 121.165 113.845C121.929 114.465 122.859 114.847 123.839 114.942C124.819 115.037 125.805 114.842 126.674 114.38C127.543 113.918 128.256 113.211 128.725 112.346C124.88 107.329 128.177 104.177 134.423 101.793C134.894 100.922 135.094 99.9304 134.998 98.9451C134.902 97.9599 134.515 97.0253 133.885 96.2604C132.164 96.0407 130.415 96.2077 128.766 96.7493C127.118 97.2909 125.611 98.1934 124.357 99.3908L124.354 99.3939L119.917 107.608C119.601 108.192 119.405 108.833 119.341 109.494C119.278 110.154 119.347 110.821 119.546 111.454Z" fill="#2F2E41"/>
<path d="M128.329 107.757C128.917 107.757 129.393 106.942 129.393 105.937C129.393 104.932 128.917 104.117 128.329 104.117C127.742 104.117 127.266 104.932 127.266 105.937C127.266 106.942 127.742 107.757 128.329 107.757Z" fill="#FFB8B8"/>
<path d="M131.499 102.967L140.635 107.099L142.31 103.41C142.022 102.062 141.418 100.801 140.547 99.7306L134.259 96.8883L131.499 102.967Z" fill="#2F2E41"/>
<path d="M153.46 184.36C155.702 184.36 157.519 182.546 157.519 180.308C157.519 178.07 155.702 176.256 153.46 176.256C151.217 176.256 149.4 178.07 149.4 180.308C149.4 182.546 151.217 184.36 153.46 184.36Z" fill="#02A9DB"/>
<path d="M23.1231 208.447C24.5884 208.447 25.7763 207.261 25.7763 205.799C25.7763 204.336 24.5884 203.151 23.1231 203.151C21.6577 203.151 20.4698 204.336 20.4698 205.799C20.4698 207.261 21.6577 208.447 23.1231 208.447Z" fill="#FF6584"/>
<path d="M36.5279 219.6H35.7159V249.75H36.5279V219.6Z" fill="#3F3D56"/>
<path d="M36.122 223.864C38.4813 223.864 40.394 221.955 40.394 219.6C40.394 217.245 38.4813 215.336 36.122 215.336C33.7626 215.336 31.8499 217.245 31.8499 219.6C31.8499 221.955 33.7626 223.864 36.122 223.864Z" fill="#3F3D56"/>
<path d="M36.122 238.182C36.122 238.182 35.5117 225.082 23.0007 226.604L36.122 238.182Z" fill="#3F3D56"/>
</svg>
